<?xml version="1.0" standalone="no"?>
<!DOCTYPE svg PUBLIC "-//W3C//DTD SVG 20010904//EN"
 "http://www.w3.org/TR/2001/REC-SVG-20010904/DTD/svg10.dtd">
<svg version="1.0" xmlns="http://www.w3.org/2000/svg"
 width="358.000000pt" height="358.000000pt" viewBox="0 0 358.000000 358.000000"
 preserveAspectRatio="xMidYMid meet">
<metadata>
Created by potrace 1.11, written by Peter Selinger 2001-2013
</metadata>
<g transform="translate(0.000000,358.000000) scale(0.100000,-0.100000)"
fill="#000000" stroke="none">
<path d="M1681 3425 c-110 -24 -217 -65 -282 -106 -83 -54 -178 -150 -185
-187 -4 -21 -18 -36 -47 -53 -23 -12 -60 -39 -82 -60 -28 -25 -53 -38 -85 -43
-148 -23 -329 -103 -425 -188 -235 -210 -371 -461 -399 -739 -3 -31 -18 -83
-33 -115 -22 -50 -27 -76 -31 -171 -5 -129 7 -235 49 -422 37 -165 83 -291
161 -441 142 -270 266 -407 512 -569 133 -87 193 -111 281 -111 72 0 190 29
280 69 42 18 54 19 128 10 105 -14 223 -4 312 26 54 17 101 24 205 28 136 5
196 18 360 75 70 24 185 83 266 134 58 36 65 38 104 29 25 -6 67 -6 106 0 207
29 332 148 459 438 114 259 163 537 144 822 -10 164 -29 260 -83 424 -102 312
-292 564 -584 773 -137 99 -359 211 -508 257 -66 20 -173 54 -239 75 -199 64
-261 71 -384 45z m321 -1377 c79 -37 142 -98 181 -177 29 -58 32 -75 32 -151
0 -74 -4 -93 -31 -150 -136 -284 -522 -284 -658 0 -27 57 -31 75 -31 150 0 70
5 95 26 140 45 96 106 154 208 197 78 33 191 29 273 -9z"/>
<path d="M1695 1965 c-17 -16 -25 -35 -25 -59 0 -48 8 -65 41 -81 43 -23 77
-18 110 14 32 33 37 67 14 110 -16 33 -33 41 -81 41 -24 0 -43 -8 -59 -25z"/>
<path d="M1975 1885 c-17 -16 -25 -35 -25 -59 0 -48 8 -65 41 -81 43 -23 77
-18 110 14 32 33 37 67 14 110 -16 33 -33 41 -81 41 -24 0 -43 -8 -59 -25z"/>
<path d="M1735 1565 c-17 -16 -25 -35 -25 -59 0 -48 8 -65 41 -81 43 -23 77
-18 110 14 32 33 37 67 14 110 -16 33 -33 41 -81 41 -24 0 -43 -8 -59 -25z"/>
</g>
</svg>
